<?xml version="1.0" encoding="UTF-8"?>
<svg version="1.1" xmlns="http://www.w3.org/2000/svg" width="256" height="256">
<path d="M0 0 C1.76428932 -0.01703577 3.52862611 -0.02920373 5.29296875 -0.03930664 C6.27547607 -0.04660294 7.2579834 -0.05389923 8.27026367 -0.06141663 C19.78437013 0.19764047 30.44672587 7.50710435 38.6875 15 C42.3223821 18.81793372 44.93284123 22.89827075 47.4375 27.5 C47.7677417 28.10457031 48.0979834 28.70914063 48.43823242 29.33203125 C53.23016802 38.70270458 53.28403732 48.11842587 53.22705078 58.42407227 C53.2264857 59.86380505 53.22680512 61.30353842 53.22793579 62.74327087 C53.22850652 66.62696289 53.21679778 70.51052983 53.20278788 74.39419293 C53.19023365 78.46208378 53.18910633 82.5299779 53.18673706 86.59788513 C53.18053603 94.28996097 53.16414395 101.98197955 53.14403808 109.67403024 C53.1216361 118.43585379 53.11067486 127.19768015 53.10064721 135.95952523 C53.07977642 153.97304921 53.04462736 171.98651999 53 190 C51.24173699 190.01800655 49.48342055 190.03084458 47.72509766 190.04150391 C46.74594391 190.04920807 45.76679016 190.05691223 44.75796509 190.06484985 C35.46121125 189.84624914 27.17671435 185.6227014 20 180 C19.38640625 179.54882812 18.7728125 179.09765625 18.140625 178.6328125 C8.47519584 171.06298524 1.99000132 159.04279273 0 147 C-0.0870427 144.9407953 -0.12201459 142.87908171 -0.12025452 140.81803894 C-0.12162918 139.57428497 -0.12300385 138.33053101 -0.12442017 137.04908752 C-0.12088151 135.67880225 -0.11724671 134.30851722 -0.11352539 132.93823242 C-0.11324319 131.48923749 -0.1134019 130.04024241 -0.1139679 128.59124756 C-0.11425459 124.66397038 -0.10837853 120.7367238 -0.10139394 116.80945373 C-0.0951391 112.70283015 -0.09455491 108.59620585 -0.09336853 104.48957825 C-0.0902615 96.71593318 -0.08205657 88.94230219 -0.07201904 81.16866332 C-0.06083841 72.31744807 -0.05534253 63.46623213 -0.05032361 54.61501157 C-0.03987344 36.40999974 -0.02228615 18.205001 0 0 Z " fill="#66AFFE" transform="translate(59,36)"/>
<path d="M0 0 C8.90232953 -0.04661874 17.80461617 -0.08201775 26.70704174 -0.10362434 C30.8420923 -0.11400148 34.97705851 -0.1280478 39.11206055 -0.15087891 C43.11266709 -0.17282631 47.1131932 -0.18461409 51.11385536 -0.18975449 C52.62984798 -0.19341138 54.14583688 -0.20055058 55.66179466 -0.21146011 C76.17001008 -0.35299463 91.34260238 2.53266607 106.8828125 16.71875 C116.34520353 26.82517812 120 40.54247907 120 54 C90.3 54 60.6 54 30 54 C29.34 49.05 28.68 44.1 28 39 C23.12616408 23.96073488 15.87441557 12.24297526 2.375 3.5625 C1.59125 3.046875 0.8075 2.53125 0 2 C0 1.34 0 0.68 0 0 Z " fill="#56A5FE" transform="translate(93,35)"/>
<path d="M0 0 C29.7 0 59.4 0 90 0 C88.78592407 15.78298705 85.20442134 28.99469519 73.453125 40.05078125 C57.40157983 52.80511411 41.49861977 53.42828485 21.75 53.1875 C14.5725 53.125625 7.395 53.06375 0 53 C0 35.51 0 18.02 0 0 Z " fill="#69B1FE" transform="translate(123,101)"/>
<path d="M0 0 C0.33 0 0.66 0 1 0 C1.17539307 1.05872314 1.35078613 2.11744629 1.53149414 3.20825195 C4.68399513 22.18375333 7.903852 41.13873231 11.6875 60 C11.89440964 61.03781113 11.89440964 61.03781113 12.10549927 62.09658813 C15.40343144 78.58033477 19.31856574 94.85537806 24 111 C24.31598145 112.09538086 24.63196289 113.19076172 24.95751953 114.31933594 C32.48853339 140.30361801 40.86865223 165.73730446 53 190 C40.53535909 190.89925265 29.83462131 187.70507733 20 180 C19.38640625 179.54882812 18.7728125 179.09765625 18.140625 178.6328125 C8.47519584 171.06298524 1.99000132 159.04279273 0 147 C-0.0870427 144.9407953 -0.12201459 142.87908171 -0.12025452 140.81803894 C-0.12162918 139.57428497 -0.12300385 138.33053101 -0.12442017 137.04908752 C-0.12088151 135.67880225 -0.11724671 134.30851722 -0.11352539 132.93823242 C-0.11324319 131.48923749 -0.1134019 130.04024241 -0.1139679 128.59124756 C-0.11425459 124.66397038 -0.10837853 120.7367238 -0.10139394 116.80945373 C-0.0951391 112.70283015 -0.09455491 108.59620585 -0.09336853 104.48957825 C-0.0902615 96.71593318 -0.08205657 88.94230219 -0.07201904 81.16866332 C-0.06083841 72.31744807 -0.05534253 63.46623213 -0.05032361 54.61501157 C-0.03987344 36.40999974 -0.02228615 18.205001 0 0 Z " fill="#2D89F4" transform="translate(59,36)"/>
<path d="M0 0 C8.90232953 -0.04661874 17.80461617 -0.08201775 26.70704174 -0.10362434 C30.8420923 -0.11400148 34.97705851 -0.1280478 39.11206055 -0.15087891 C43.11266709 -0.17282631 47.1131932 -0.18461409 51.11385536 -0.18975449 C52.62984798 -0.19341138 54.14583688 -0.20055058 55.66179466 -0.21146011 C71.00501292 -0.31734914 86.34246787 0.34030443 99 10 C99 10.33 99 10.66 99 11 C98.43603516 11.0501123 97.87207031 11.10022461 97.29101562 11.15185547 C94.69337763 11.38640878 92.09673353 11.63064446 89.5 11.875 C88.613125 11.95363281 87.72625 12.03226563 86.8125 12.11328125 C67.11589487 13.99604498 52.95292751 22.40319943 40 37 C37.72346016 40.21204103 35.79589947 43.49982857 34 47 C33.66226563 47.64582031 33.32453125 48.29164062 32.9765625 48.95703125 C32.29446202 50.29307209 31.6421675 51.64431306 31 53 C30.67 53 30.34 53 30 53 C29.84144531 51.91203125 29.68289062 50.8240625 29.51953125 49.703125 C26.7839642 32.02187321 20.749056 17.10731378 6 6 C4.8418631 5.2164095 3.67605615 4.44393048 2.5 3.6875 C1.675 3.130625 0.85 2.57375 0 2 C0 1.34 0 0.68 0 0 Z " fill="#4C9CF9" transform="translate(93,35)"/>
<path d="M0 0 C0.66 0 1.32 0 2 0 C3.0859375 1.546875 3.0859375 1.546875 4.375 3.75 C16.63050917 22.57730394 37.80046055 34.70281387 59.42578125 39.51171875 C62.61364482 40.11639697 65.77588508 40.6336233 69 41 C67.8138757 44.5583729 66.61006698 45.01902727 63.375 46.65429688 C62.75625 46.95400391 62.1375 47.25371094 61.5 47.5625 C60.9121875 47.86607422 60.324375 48.16964844 59.71875 48.48242188 C51.48206385 52.55638625 43.36401382 53.29576139 34.27734375 53.1953125 C32.96401062 53.19229126 32.96401062 53.19229126 31.62414551 53.18920898 C28.39520935 53.17885041 25.16634866 53.150929 21.9375 53.125 C14.698125 53.08375 7.45875 53.0425 0 53 C0 35.51 0 18.02 0 0 Z " fill="#2886F3" transform="translate(123,101)"/>
<path d="M0 0 C3.44948083 1.82558731 6.79494993 3.77039995 10 6 C10 6.33 10 6.66 10 7 C9.14619751 7.08302368 9.14619751 7.08302368 8.27514648 7.16772461 C5.66243776 7.42270715 3.04997032 7.68008678 0.4375 7.9375 C-0.90538086 8.06801758 -0.90538086 8.06801758 -2.27539062 8.20117188 C-7.20552409 8.68876749 -12.10211759 9.2542319 -17 10 C-16.34 8.68 -15.68 7.36 -15 6 C-14.34 6 -13.68 6 -13 6 C-12.773125 5.401875 -12.54625 4.80375 -12.3125 4.1875 C-9.26374312 -0.89376147 -5.41942042 -1.73830466 0 0 Z " fill="#1172DF" transform="translate(182,39)"/>
<path d="M0 0 C0.66 0.33 1.32 0.66 2 1 C0.35 2.65 -1.3 4.3 -3 6 C-2.34 6.66 -1.68 7.32 -1 8 C-3.31 8.33 -5.62 8.66 -8 9 C-7.34 7.68 -6.68 6.36 -6 5 C-5.34 5 -4.68 5 -4 5 C-3.566875 4.0409375 -3.566875 4.0409375 -3.125 3.0625 C-2 1 -2 1 0 0 Z " fill="#1D79E3" transform="translate(173,40)"/>
</svg>
